<svg width="314" height="100" viewBox="0 0 314 100" fill="none" xmlns="http://www.w3.org/2000/svg">
<g clip-path="url(#clip0_3130_3910)">
<path d="M50 0H0V100H50V0Z" fill="#154273"/>
<path d="M25.9 77.3601H25.03V74.95H25.9V77.3601ZM29.83 66.7201H28.96V64.31H29.83V66.7201ZM13.71 62.5601C13.64 62.5601 13.19 62.5601 13.19 62.6501C13.19 62.7401 13.4 62.7 13.71 62.75C14.41 62.87 14.68 63.2201 15.17 63.2201C15.61 63.2201 16.07 62.92 15.89 62.28C15.86 62.17 15.8 62.2 15.78 62.28C15.71 62.57 15.36 62.73 14.99 62.73C14.53 62.73 14.43 62.57 13.71 62.57V62.5601ZM8.92001 64.9701C9.00001 65.0801 9.82001 66.1401 8.56001 66.5501C8.50001 66.5701 8.49001 66.6201 8.56001 66.6601C9.49001 67.0501 9.94001 66.3301 9.94001 66.3301C10.41 67.4001 9.69001 68 9.69001 68C9.79001 68.1901 10.24 68.52 10.91 68.67C11.17 68.53 11.53 68.2701 11.68 67.8701C11.68 67.8701 11.86 68.34 11.7 68.7901C13.6 68.9601 14.27 67.4401 15.74 67.7201C15.78 67.7201 15.8 67.7001 15.8 67.6601C15.8 66.7201 15.23 65.0101 13.41 64.6601C11.6 64.3101 12.09 63.57 12.09 63.57C12.85 63.54 13.29 63.87 13.29 63.87C13.43 63.64 13.23 63.4001 13.23 63.4001C13.3 63.3101 13.34 63 13.34 63C12.48 63 12.26 62.8101 12.26 62.8101C12.13 62.3001 12.48 61.58 13.76 62.35C14.08 62.07 14.05 61.6301 14.05 61.6301C14.15 61.5801 14.21 61.43 14.21 61.37C14.21 61.16 13.19 60.59 12.93 60.5201C12.87 60.21 12.47 59.7701 11.27 59.93C10.7 60 10.29 59.85 10.48 59.5201C10.51 59.46 10.41 59.45 10.36 59.51C10.23 59.64 10.05 60.01 10.54 60.26C11.09 60.54 11.12 61.09 11.13 61.17C11.13 61.29 11 61.3 10.97 61.18C10.72 60.25 9.44001 60.0501 8.69001 60.5401C8.73001 61.0401 9.27001 61.37 9.56001 61.37C9.73001 61.37 9.96001 61.2001 9.96001 60.9701C9.96001 60.8601 10.02 60.87 10.05 60.96C10.17 61.29 9.68001 61.9801 8.96001 61.5601C8.22001 62.3001 8.52001 63.22 8.59001 63.55C8.72001 64.15 8.43001 64.7401 7.88001 64.4701C7.85001 64.4601 7.82001 64.4501 7.82001 64.5101C7.82001 64.8901 8.32001 65.32 8.90001 64.99L8.92001 64.9701ZM13 61.2401C12.65 61.6301 12.09 61.5401 11.95 60.9001C12.66 60.8601 12.97 60.9301 13 61.2401ZM35.07 62.7201C34.7 62.7201 34.35 62.5601 34.28 62.2701C34.26 62.2001 34.2 62.17 34.17 62.2701C33.99 62.9101 34.45 63.21 34.89 63.21C35.38 63.21 35.65 62.8601 36.35 62.7401C36.66 62.6901 36.87 62.74 36.87 62.64C36.87 62.54 36.42 62.55 36.35 62.55C35.63 62.55 35.53 62.71 35.07 62.71V62.7201ZM42.23 64.49C42.23 64.43 42.2 64.44 42.17 64.45C41.62 64.72 41.33 64.14 41.46 63.53C41.53 63.19 41.83 62.2801 41.09 61.5401C40.36 61.9601 39.87 61.27 40 60.94C40.03 60.85 40.09 60.8401 40.09 60.9501C40.09 61.18 40.32 61.35 40.49 61.35C40.78 61.35 41.32 61.0201 41.36 60.5201C40.61 60.0301 39.33 60.23 39.08 61.16C39.05 61.28 38.91 61.2701 38.92 61.1501C38.92 61.0701 38.96 60.5201 39.51 60.2401C40.01 59.9901 39.83 59.6201 39.69 59.4901C39.64 59.4401 39.53 59.45 39.57 59.5C39.76 59.83 39.35 59.98 38.79 59.91C37.59 59.75 37.2 60.2 37.13 60.5C36.87 60.57 35.85 61.14 35.85 61.35C35.85 61.41 35.91 61.5701 36.01 61.6101C36.01 61.6101 35.99 62.0401 36.3 62.3301C37.57 61.5601 37.93 62.2801 37.8 62.7901C37.8 62.7901 37.57 62.97 36.71 62.98C36.71 62.98 36.75 63.2901 36.82 63.3801C36.82 63.3801 36.62 63.63 36.76 63.85C36.76 63.85 37.2 63.52 37.96 63.55C37.96 63.55 38.45 64.29 36.64 64.64C34.83 64.99 34.25 66.7 34.25 67.64C34.25 67.69 34.27 67.71 34.31 67.7C35.78 67.43 36.45 68.95 38.35 68.77C38.18 68.32 38.37 67.85 38.37 67.85C38.52 68.25 38.88 68.5201 39.14 68.6501C39.82 68.5001 40.26 68.1801 40.36 67.9801C40.36 67.9801 39.64 67.39 40.11 66.31C40.11 66.31 40.56 67.03 41.49 66.64C41.57 66.6 41.55 66.55 41.49 66.53C40.23 66.12 41.05 65.06 41.13 64.95C41.72 65.28 42.21 64.8501 42.21 64.4701L42.23 64.49ZM38.11 60.9001C37.97 61.5401 37.41 61.6301 37.06 61.2401C37.09 60.9301 37.39 60.8601 38.11 60.9001ZM24.7 50.21C24.7 50.37 24.77 50.51 24.82 50.59C24.93 50.75 24.91 50.84 24.86 50.89C24.81 50.94 24.72 50.96 24.56 50.85C24.48 50.79 24.34 50.73 24.18 50.73C23.91 50.73 23.77 50.9101 23.77 51.0601C23.77 51.2101 23.91 51.39 24.18 51.39C24.34 51.39 24.48 51.3201 24.56 51.2701C24.72 51.1601 24.81 51.18 24.86 51.23C24.91 51.28 24.84 51.83 24.77 52.2701C24.32 52.37 24.1 52.73 24.1 52.94C24.1 53.49 24.68 53.8001 25.03 53.9901C25.37 53.8101 25.96 53.49 25.96 52.94C25.96 52.73 25.74 52.36 25.29 52.2701C25.23 51.84 25.15 51.28 25.2 51.23C25.25 51.18 25.34 51.1601 25.5 51.2701C25.58 51.33 25.72 51.39 25.88 51.39C26.15 51.39 26.29 51.2101 26.29 51.0601C26.29 50.9101 26.15 50.73 25.88 50.73C25.72 50.73 25.58 50.8 25.5 50.85C25.34 50.96 25.25 50.94 25.2 50.89C25.15 50.84 25.13 50.75 25.24 50.59C25.3 50.51 25.36 50.37 25.36 50.21C25.36 49.94 25.18 49.8 25.03 49.8C24.88 49.8 24.7 49.94 24.7 50.21ZM25.03 54.2701C24.66 54.2701 24.36 54.57 24.36 54.94C24.36 55.31 24.66 55.6101 25.03 55.6101C25.4 55.6101 25.7 55.31 25.7 54.94C25.7 54.57 25.4 54.2701 25.03 54.2701ZM25.03 60.68C27.7 60.68 29.2 61.19 29.2 61.19C29.21 59.84 29.2 59.0901 29.98 59.2001C29.56 58.0701 31.38 57.6201 31.38 56.1501C31.38 55.1801 30.69 55.07 30.49 55.07C29.89 55.07 29.98 55.46 29.47 55.46C29.41 55.46 29.34 55.4401 29.34 55.4901C29.34 55.6601 29.48 55.9501 29.72 55.9501C30.04 55.9501 30.04 55.6301 30.28 55.6301C30.38 55.6301 30.53 55.7101 30.53 56.0401C30.53 56.6701 30.12 57.3601 29.63 57.9001C29.52 57.7501 29.37 57.6501 29.18 57.6501C28.89 57.6501 28.64 57.95 28.64 58.32C28.64 58.46 28.66 58.56 28.71 58.67C28.55 58.76 28.4 58.8101 28.3 58.8101C28.08 58.8101 27.75 58.7201 27.75 58.2401C27.75 57.1701 29.18 56.23 29.18 54.87C29.18 54.22 28.75 53.5801 27.84 53.5801C26.87 53.5801 27.05 54.46 26.21 54.46C26.17 54.46 26.14 54.47 26.14 54.51C26.14 54.57 26.29 55.0601 26.72 55.0601C27.18 55.0601 27.31 54.26 27.73 54.26C27.88 54.26 28.11 54.35 28.11 54.89C28.11 55.31 27.9 56.0001 27.6 56.6501C27.49 56.5401 27.34 56.46 27.18 56.46C26.82 56.46 26.56 56.8101 26.56 57.2201C26.56 57.4801 26.66 57.7401 26.84 57.9001C26.63 58.1701 26.41 58.39 26.12 58.39C25.54 58.39 25.29 58.0601 25.29 57.7001C25.29 57.3101 26 57.17 26 56.57C26 56.16 25.73 55.93 25.48 55.93C25.2 55.93 25.06 56.1101 25.03 56.1101C25 56.1101 24.86 55.93 24.58 55.93C24.32 55.93 24.06 56.16 24.06 56.57C24.06 57.17 24.77 57.3201 24.77 57.7001C24.77 58.0601 24.51 58.39 23.94 58.39C23.65 58.39 23.43 58.1701 23.22 57.9001C23.4 57.7301 23.5 57.4801 23.5 57.2201C23.5 56.8001 23.24 56.46 22.88 56.46C22.71 56.46 22.57 56.5401 22.46 56.6501C22.16 55.9901 21.95 55.31 21.95 54.89C21.95 54.35 22.18 54.26 22.33 54.26C22.74 54.26 22.87 55.0601 23.34 55.0601C23.77 55.0601 23.92 54.57 23.92 54.51C23.92 54.48 23.89 54.46 23.85 54.46C23.01 54.46 23.19 53.5801 22.22 53.5801C21.32 53.5801 20.88 54.22 20.88 54.87C20.88 56.23 22.31 57.1701 22.31 58.2401C22.31 58.7201 21.98 58.8101 21.76 58.8101C21.65 58.8101 21.51 58.76 21.35 58.67C21.4 58.55 21.42 58.46 21.42 58.32C21.42 57.95 21.17 57.6501 20.88 57.6501C20.7 57.6501 20.55 57.7501 20.44 57.9001C19.95 57.3601 19.54 56.6701 19.54 56.0401C19.54 55.7201 19.69 55.6301 19.79 55.6301C20.02 55.6301 20.03 55.9501 20.35 55.9501C20.59 55.9501 20.73 55.6601 20.73 55.4901C20.73 55.4401 20.66 55.46 20.6 55.46C20.09 55.46 20.18 55.07 19.58 55.07C19.38 55.07 18.69 55.1801 18.69 56.1501C18.69 57.6301 20.51 58.0701 20.09 59.2001C20.86 59.0901 20.85 59.84 20.87 61.19C20.87 61.19 22.38 60.68 25.04 60.68H25.03ZM20.14 62.67C19.41 62.83 18.89 62.98 18.66 63.05C18.67 62.73 18.79 62.43 19.08 62.37C19.12 62.37 19.13 62.3101 19.09 62.2901C18.44 61.8601 18.1 62.68 18.09 62.71C17.86 62.69 17.51 62.76 17.51 63.07C17.51 64 15.39 64.51 14.9 64.59C15.77 64.92 16.13 66.02 16.13 66.02C16.76 65.39 17.49 64.84 17.66 64.84C17.83 64.84 17.89 65.05 17.9 65.17C17.9 65.21 17.94 65.2201 17.97 65.1901C18.3 64.7001 18.14 64.5901 18.11 64.4401C18.09 64.3301 18.12 63.9001 18.6 63.9501V70.14L18.35 70.1901C18.24 70.2101 17.33 69.4401 16.3 68.7201C15.26 68.0001 14.71 68.43 13.53 69.07C11.98 69.91 10.42 69.1501 10.42 69.1501C9.09001 70.1001 8.63001 72.8601 8.63001 72.8601C8.36001 72.9701 7.92001 73.09 7.51001 73.09C6.49001 73.09 6.31001 72.4701 6.31001 72.1101C6.31001 70.5401 8.28001 69.87 8.28001 68.32C8.28001 67.9401 8.11001 66.42 6.22001 66.42C5.98001 66.42 4.54001 66.42 4.53001 66.42C3.82001 66.42 3.65001 65.9101 3.55001 65.7201C3.51001 65.6401 3.44001 65.69 3.47001 65.75C3.52001 65.88 3.39001 66.0801 3.39001 66.4701C3.39001 67.1 3.76001 67.4801 4.45001 67.4801C4.76001 67.4801 5.06001 67.3901 5.15001 67.3301C5.21001 67.2901 5.25001 67.35 5.22001 67.39C4.92001 67.74 4.90001 68.4001 5.02001 68.5501C5.05001 68.5901 5.09001 68.5801 5.09001 68.5501C5.26001 67.8901 5.88001 67.2601 6.72001 67.2601C7.75001 67.2601 7.74001 68.13 7.74001 68.34C7.74001 69.6 5.53001 70.5201 5.53001 72.2601C5.53001 74.0001 7.39001 74.3901 8.46001 74.1201C8.40001 75.8801 6.38001 76.4801 6.32001 75.2201C6.32001 75.1601 6.27001 75.1501 6.24001 75.2201C5.99001 75.8401 6.09001 76.39 6.87001 76.56C6.92001 76.57 6.90001 76.6 6.85001 76.64C6.07001 77.13 6.49001 79.07 6.53001 79.64C6.59001 80.46 5.77001 80.36 5.70001 80.34C5.67001 80.33 5.63001 80.3401 5.69001 80.4101C6.27001 81.1201 6.99001 80.4701 6.99001 80.4701C7.53001 80.6401 7.20001 81.1 6.83001 81.34C6.77001 81.38 6.78001 81.42 6.83001 81.42C6.91001 81.42 7.75001 81.5001 7.90001 80.8301C8.27001 81.2701 8.82001 81.1101 8.93001 81.0501C9.09001 80.9701 9.88001 80.68 9.95001 81.56C9.95001 81.62 9.99001 81.5801 10.02 81.5501C10.61 80.8001 9.98001 80.34 9.62001 80.2901C9.65001 80.25 10.12 79.8501 10.55 80.4001C10.58 80.4401 10.61 80.4501 10.61 80.3701C10.66 79.4201 9.89001 79.34 9.39001 79.75C9.37001 79.65 9.20001 79.12 9.95001 79.14C9.97001 79.14 10 79.1101 9.97001 79.0801C9.39001 78.4601 8.91001 79.0201 8.79001 79.1601C8.53001 79.4701 7.88001 79.34 7.82001 79.34C8.02001 76.05 10.92 77.2201 11.32 75.6201C11.34 75.5401 11.38 75.57 11.38 75.6C11.49 75.99 12.47 76.04 12.65 75.28C12.65 75.23 12.65 75.2001 12.62 75.2301C11.78 76.0701 9.89001 73.4501 12.47 71.32C14.67 69.51 16.64 70.5201 17.39 71.1101C17.43 71.3701 17.27 71.46 17.17 71.49C17.13 71.5 17.12 71.53 17.17 71.56C17.38 71.64 17.67 71.61 17.81 71.42C18.28 71.75 17.88 72.17 17.69 72.28C17.64 72.31 17.66 72.34 17.7 72.35C18.13 72.43 18.49 71.9901 18.51 71.7301L18.58 71.77V73.64C18.58 76.3 21.65 76.67 25.02 78.92C28.39 76.66 31.45 76.3 31.45 73.64V71.77L31.52 71.7301C31.54 71.9801 31.89 72.43 32.33 72.35C32.37 72.35 32.39 72.31 32.34 72.28C32.15 72.16 31.74 71.75 32.22 71.42C32.36 71.62 32.65 71.64 32.86 71.56C32.92 71.54 32.91 71.5 32.86 71.49C32.76 71.46 32.6 71.3701 32.64 71.1101C33.39 70.51 35.36 69.5 37.56 71.32C40.14 73.4501 38.25 76.0601 37.41 75.2301C37.37 75.1901 37.37 75.23 37.38 75.28C37.56 76.05 38.54 75.99 38.65 75.6C38.65 75.57 38.7 75.5401 38.71 75.6201C39.11 77.2201 42 76.05 42.21 79.34C42.15 79.34 41.5 79.4701 41.24 79.1601C41.13 79.0301 40.65 78.4601 40.06 79.0801C40.02 79.1201 40.06 79.14 40.08 79.14C40.83 79.12 40.67 79.65 40.64 79.75C40.14 79.34 39.37 79.4201 39.42 80.3701C39.42 80.4401 39.45 80.4401 39.48 80.4001C39.91 79.8501 40.38 80.25 40.41 80.2901C40.06 80.34 39.42 80.8001 40.01 81.5501C40.04 81.5801 40.07 81.62 40.08 81.56C40.16 80.68 40.94 80.9601 41.1 81.0501C41.21 81.1101 41.76 81.2701 42.13 80.8301C42.28 81.5001 43.12 81.43 43.2 81.42C43.26 81.42 43.26 81.38 43.2 81.34C42.84 81.1 42.5 80.6401 43.04 80.4701C43.04 80.4701 43.76 81.1201 44.34 80.4101C44.39 80.3501 44.36 80.33 44.33 80.34C44.26 80.36 43.44 80.46 43.5 79.64C43.54 79.07 43.96 77.13 43.18 76.64C43.13 76.61 43.11 76.58 43.16 76.56C43.94 76.39 44.04 75.8401 43.79 75.2201C43.76 75.1401 43.71 75.1601 43.71 75.2201C43.65 76.4801 41.64 75.8801 41.57 74.1201C42.65 74.4001 44.5 74.0201 44.5 72.2601C44.5 70.5001 42.29 69.6 42.29 68.34C42.29 68.13 42.29 67.2601 43.31 67.2601C44.15 67.2601 44.77 67.8901 44.94 68.5501C44.94 68.5801 44.98 68.5901 45.01 68.5501C45.13 68.3901 45.11 67.74 44.81 67.39C44.78 67.36 44.81 67.2901 44.88 67.3301C44.97 67.3901 45.27 67.4801 45.58 67.4801C46.27 67.4801 46.64 67.1 46.64 66.4701C46.64 66.0801 46.5 65.88 46.56 65.75C46.59 65.69 46.51 65.6501 46.48 65.7201C46.38 65.9201 46.2 66.42 45.5 66.42C45.5 66.42 44.05 66.42 43.81 66.42C41.92 66.42 41.75 67.95 41.75 68.32C41.75 69.87 43.72 70.5401 43.72 72.1101C43.72 72.4801 43.53 73.09 42.52 73.09C42.1 73.09 41.66 72.9701 41.4 72.8601C41.4 72.8601 40.95 70.1101 39.61 69.1501C39.61 69.1501 38.05 69.91 36.5 69.07C35.32 68.43 34.76 68.0001 33.72 68.7201C32.68 69.4401 31.78 70.2101 31.67 70.1901L31.42 70.14V63.9501C31.9 63.9001 31.93 64.3301 31.91 64.4401C31.88 64.5801 31.73 64.7001 32.05 65.1901C32.08 65.2301 32.11 65.21 32.12 65.17C32.13 65.05 32.2 64.84 32.36 64.84C32.52 64.84 33.26 65.39 33.89 66.02C33.89 66.02 34.25 64.93 35.12 64.59C34.63 64.51 32.51 64 32.51 63.07C32.51 62.76 32.16 62.69 31.93 62.71C31.92 62.68 31.57 61.8601 30.93 62.2901C30.9 62.3101 30.9 62.36 30.94 62.37C31.23 62.44 31.35 62.73 31.36 63.05C30.74 62.86 28.11 62.12 24.99 62.12C23.47 62.12 22.08 62.3 20.97 62.5V64.64H20.1V62.67M14.38 84.6501C14.15 84.5601 14 84.41 14 84.1V82.77C13.62 82.64 12.58 82.24 10.49 82.24C8.76001 82.24 8.22001 82.63 8.19001 82.77L7.73001 85.31C7.73001 85.31 8.43001 84.6701 10.94 84.8301C13.96 85.0201 17.09 86.8101 17.09 84.9001V83.78C14.72 83.78 14.37 84.53 14.37 84.64L14.38 84.6501ZM32.97 83.78V84.9001C32.97 86.8001 36.1 85.0201 39.12 84.8301C41.63 84.6701 42.33 85.31 42.33 85.31L41.87 82.77C41.85 82.63 41.3 82.24 39.57 82.24C37.49 82.24 36.45 82.64 36.06 82.77V84.1C36.06 84.4 35.91 84.5501 35.68 84.6501C35.68 84.5401 35.33 83.7901 32.96 83.7901L32.97 83.78ZM25.03 82.63C29.9 82.63 34.84 82.8801 35.48 83.6201C35.53 83.6801 35.55 83.62 35.55 83.57V80.99C35.55 80.24 30.45 79.8001 25.02 79.8001C19.59 79.8001 14.49 80.24 14.49 80.99V83.57C14.49 83.57 14.51 83.6701 14.56 83.6201C15.21 82.8901 20.15 82.63 25.01 82.63H25.03ZM20.69 70.4701L20.2 70.34L20.16 70.4001L19.59 70.1501C19.59 70.1501 20.01 70.1501 20.1 70.1501C20.15 70.1501 20.15 70.12 20.13 70.1C19.9 69.87 19.69 69.67 19.69 69.67C19.69 69.67 19.92 69.76 20.25 69.88C20.29 69.89 20.3 69.87 20.28 69.84C20.12 69.61 19.9 69.2901 19.9 69.2901C19.9 69.2901 20.36 69.6001 20.45 69.6601C20.48 69.6801 20.5 69.66 20.49 69.63C20.37 69.33 20.23 68.9801 20.23 68.9801L20.73 69.46C20.73 69.46 20.78 69.4601 20.77 69.4401C20.72 69.2101 20.63 68.7901 20.63 68.7901L21 69.3301C21 69.3301 21.05 69.35 21.05 69.32C21.05 69.21 21.06 68.7301 21.06 68.7301C21.06 68.7301 21.22 69.09 21.29 69.27C21.31 69.31 21.33 69.31 21.35 69.27C21.37 69.21 21.54 68.81 21.54 68.81L21.56 69.43L21.48 69.45L21.38 70.1901C22.11 70.0201 23.03 68.7601 23.73 68.7601C24.57 68.7601 24.87 69.74 26.41 69.24C26.8 69.82 26.94 70.3201 27.09 71.0101C27.69 71.5701 28.52 71.3801 28.52 70.7901C28.52 69.9901 27.65 69.84 27.65 69C27.65 68.63 27.91 68.09 28.62 68.09C29 68.09 29.55 68.25 29.87 68.25C30.25 68.25 30.33 67.9801 30.37 67.8601C30.4 67.7801 30.51 67.8001 30.5 67.8601C30.49 67.9401 30.54 68.0501 30.54 68.2301C30.54 68.7601 29.77 68.8301 29.68 68.7601C29.64 68.7301 29.61 68.7701 29.64 68.8001C29.76 68.8901 29.73 69.2101 29.59 69.4101C29.57 69.4301 29.55 69.4301 29.55 69.4101C29.47 69.0301 29.02 68.56 28.63 68.56C28.49 68.56 28.2 68.6401 28.2 68.9801C28.2 69.4501 29.15 69.8901 29.15 70.8701C29.15 71.8501 28.14 72.14 27.12 71.88C27.15 72.85 28.6 73.4201 28.63 72.7301C28.63 72.6801 28.66 72.7101 28.67 72.7301C28.88 73.0301 28.79 73.2501 28.51 73.3701C28.76 73.4801 28.81 73.9901 28.88 74.3001C28.99 74.7601 29.47 74.5 29.5 74.49C29.53 74.47 29.54 74.49 29.52 74.52C29.34 74.99 28.85 74.81 28.85 74.81C28.6 74.99 28.9 75.1501 29.13 75.2201C29.16 75.2201 29.16 75.25 29.13 75.27C28.96 75.33 28.6 75.45 28.42 75.14C28.29 75.46 28.02 75.45 27.92 75.45C27.73 75.45 27.61 75.6401 27.65 75.9001C27.65 75.9201 27.64 75.93 27.62 75.92C27.18 75.63 27.43 75.2801 27.62 75.1901C27.59 75.1701 27.28 75.0401 27.15 75.4001C27.15 75.4301 27.12 75.4301 27.11 75.4001C26.92 74.8801 27.34 74.7301 27.64 74.8601C27.62 74.7901 27.46 74.5301 27.06 74.6201C27.04 74.6201 27.03 74.62 27.04 74.59C27.11 74.43 27.3 74.2001 27.67 74.43C27.86 74.5501 28.18 74.3801 28.21 74.3601C27.56 73.07 26.31 74.15 26.02 73.14C26.02 73.12 25.99 73.1001 25.97 73.1601C25.9 73.3701 25.35 73.3901 25.25 72.9701C25.25 72.9401 25.25 72.93 25.28 72.95C25.36 73.03 25.53 73.1 25.76 72.78C25.91 72.56 25.93 72.2701 25.93 72.0801C25.93 71.3001 25.15 69.9801 23.93 69.9801C23.16 69.9801 22.33 70.2801 21.71 70.7301L22.28 70.8601C22.23 71.4401 21.67 71.78 21.16 71.63L21.25 70.9701C21.16 71.0001 20.94 71.08 20.82 71.25C20.82 71.26 20.79 71.25 20.79 71.25C20.69 70.8701 21 70.68 21.09 70.64C21.1 70.64 21.09 70.63 21.09 70.63C20.81 70.62 20.66 70.82 20.61 70.89C20.61 70.9 20.59 70.89 20.59 70.89C20.57 70.82 20.52 70.63 20.65 70.49L20.69 70.4701ZM22.4 74.95C22.18 75.22 21.99 74.96 21.7 74.96C21.43 74.96 21.38 75.19 21.38 75.28C21.38 75.3 21.37 75.3 21.36 75.28C21.05 74.86 21.4 74.63 21.6 74.6C21.57 74.57 21.27 74.3701 21.08 74.6501C21.07 74.6701 21.05 74.66 21.05 74.64C21.05 74.12 21.45 74.08 21.73 74.31C21.78 74.11 21.65 73.9801 21.43 73.9701C21.4 73.9701 21.4 73.9501 21.41 73.9401C21.5 73.8401 21.59 73.8001 21.68 73.8001C21.97 73.8001 22.01 74.17 22.2 74.17C22.48 74.17 22.89 73.7901 22.92 73.75C22.92 73.73 22.64 72.9901 22.69 72.5501C22.69 72.5301 22.69 72.5301 22.67 72.5401C22.53 72.6201 22.19 72.6101 22.19 72.1901C22.19 72.1601 22.19 72.1501 22.22 72.1901C22.37 72.4001 22.62 72.16 22.74 72.02C22.87 71.87 23.59 70.8301 24.54 70.8301C24.75 70.8301 25.02 70.95 25.24 71.1C24.91 71.5 25.24 71.8801 25.48 71.8301C25.51 71.8301 25.51 71.85 25.48 71.8601C24.22 72.33 23.66 72.5201 23.66 73.5801C23.66 74.1301 23.85 74.4401 24.17 74.3601C24.19 74.3601 24.2 74.36 24.18 74.38C24.06 74.52 23.93 74.57 23.82 74.57C23.56 74.57 23.51 74.43 23.37 74.43C23.23 74.43 22.76 74.7101 22.76 74.9401C22.76 75.0301 22.82 75.15 22.98 75.25C22.99 75.25 22.98 75.27 22.98 75.27C22.87 75.29 22.5 75.3201 22.42 74.9701L22.4 74.95ZM25.71 64.7C25.32 64.68 25.06 64.76 25.08 64.89C25.27 65.09 25.53 65.07 25.71 64.7ZM24.26 65.67C24.54 65.6 24.84 65.63 24.88 65.64C24.92 65.65 24.92 65.7201 24.88 65.7301C24.3 65.8001 24.27 66.07 23.9 66.07C23.66 66.07 23.39 65.82 23.49 65.46C23.5 65.41 23.54 65.41 23.55 65.46C23.59 65.62 23.81 65.79 24.27 65.67H24.26ZM16.73 78.53C17.11 79.02 17.48 78.56 17.99 78.56C18.24 78.56 18.54 78.64 18.59 79.14C18.59 79.17 18.61 79.17 18.64 79.14C19.19 78.39 18.56 77.9701 18.2 77.9101C18.28 77.8401 18.81 77.51 19.16 78C19.18 78.0301 19.22 78.0201 19.22 77.9801C19.22 77.0301 18.51 76.9601 17.99 77.3701C17.89 77.0001 18.17 76.7601 18.53 76.7601C18.57 76.7601 18.59 76.73 18.57 76.71C17.93 76.03 17.46 76.89 17.35 77.02C17.1 77.36 16.19 76.72 15.82 76.34C15.82 76.34 16.62 75.5001 16.62 74.7301C16.62 74.6801 16.62 74.62 16.62 74.59C16.62 74.57 16.63 74.56 16.65 74.57C16.73 74.62 16.84 74.6501 16.95 74.6501C17.13 74.6501 17.48 74.5901 17.48 73.9401C17.48 73.8901 17.46 73.89 17.44 73.92C17.34 74.06 17.24 74.09 17.16 74.09C16.51 74.09 15.16 71.93 13.56 71.93C13.14 71.93 12.35 72.2301 11.96 72.6601C12.15 72.7701 12.19 73.01 12.17 73.18C12.14 73.4501 11.92 73.5901 11.7 73.6501C11.66 73.6501 11.66 73.69 11.7 73.71C12.51 74.02 13.97 74.57 14.31 74.8601C14.7 75.2001 14.63 75.8401 14.4 76.7301C14.18 77.5801 13.71 77.4701 13.53 77.4401C13.5 77.4401 13.5 77.4501 13.51 77.4701C13.72 77.7301 13.97 77.82 14.19 77.82C14.61 77.82 14.77 77.56 14.98 77.56C15.34 77.56 16.11 78.0801 16.11 78.4801C16.11 78.7001 15.94 78.9101 15.71 79.0501C15.7 79.0601 15.7 79.0801 15.71 79.0801C15.88 79.1101 16.6 79.17 16.74 78.53H16.73ZM34.36 79.0801C34.36 79.0801 34.39 79.0601 34.37 79.0501C34.15 78.9001 33.97 78.7001 33.97 78.4801C33.97 78.0801 34.73 77.56 35.1 77.56C35.32 77.56 35.47 77.82 35.89 77.82C36.11 77.82 36.36 77.7301 36.57 77.4701C36.59 77.4501 36.57 77.4301 36.55 77.4401C36.38 77.4701 35.9 77.5801 35.68 76.7301C35.45 75.8401 35.37 75.2001 35.77 74.8601C36.1 74.57 37.57 74.02 38.38 73.71C38.42 73.69 38.42 73.6601 38.38 73.6501C38.16 73.5901 37.94 73.4501 37.91 73.18C37.89 73.01 37.93 72.7801 38.12 72.6601C37.72 72.2301 36.93 71.93 36.51 71.93C34.91 71.93 33.56 74.09 32.91 74.09C32.83 74.09 32.72 74.06 32.63 73.92C32.61 73.89 32.59 73.8901 32.59 73.9401C32.59 74.5901 32.94 74.6501 33.12 74.6501C33.22 74.6501 33.34 74.62 33.42 74.57C33.44 74.56 33.45 74.57 33.45 74.59C33.45 74.62 33.45 74.6801 33.45 74.7301C33.45 75.5001 34.25 76.34 34.25 76.34C33.89 76.72 32.98 77.35 32.72 77.02C32.61 76.88 32.14 76.03 31.5 76.71C31.48 76.74 31.5 76.7601 31.54 76.7601C31.9 76.7601 32.18 77.0001 32.08 77.3701C31.56 76.9601 30.85 77.0301 30.85 77.9801C30.85 78.0201 30.89 78.0301 30.91 78C31.25 77.51 31.79 77.8401 31.86 77.9101C31.5 77.9601 30.88 78.39 31.42 79.14C31.44 79.17 31.46 79.17 31.47 79.14C31.53 78.65 31.83 78.56 32.07 78.56C32.57 78.56 32.94 79.02 33.33 78.53C33.47 79.17 34.18 79.1101 34.36 79.0801ZM21.45 66.6101C21.4 66.68 21.23 66.6101 21.17 66.5801C21.16 66.5801 21.15 66.58 21.16 66.59C21.2 66.68 21.36 66.95 21.6 66.95C21.71 66.95 21.87 66.89 21.91 66.81C21.91 66.81 22.85 67.12 23.31 67.24C23.13 67.48 23.02 67.7701 22.99 68.0801C22.62 67.8501 21.12 67.0501 21.12 67.0501L20.66 67.6901C20.58 67.7901 20.21 67.52 20.29 67.42L20.64 66.93C20.52 66.81 20.24 66.8801 20.16 66.9101C20.15 66.9101 20.14 66.91 20.15 66.89C20.2 66.79 20.37 66.5 20.81 66.63C20.81 66.36 20.41 66.4501 20.3 66.4801C20.29 66.4801 20.28 66.4801 20.3 66.4701C20.41 66.35 20.74 66.09 21.1 66.31L21.26 66.09L20.94 65.75L21.14 65.4701L21.37 65.77L23.1 63.4001C23.14 63.3401 23.49 63.24 23.61 63.21C23.62 63.34 23.64 63.7 23.6 63.76L21.9 66.1501L22.26 66.27L22.06 66.5501L21.64 66.35L21.45 66.6101ZM27.52 66.2201C27.52 66.4401 27.65 66.7601 27.94 66.6601C27.95 66.6601 27.97 66.66 27.96 66.67C27.92 66.91 27.48 67.13 27.29 66.85C27.11 67.22 27.16 67.57 27.53 67.77C27.55 67.78 27.55 67.8101 27.53 67.8301C27.3 67.9901 26.95 67.96 26.79 67.64C26.48 67.87 26.52 68.3701 26.71 68.5401C26.71 68.5401 25.85 69.0501 25.07 68.6901C24.55 68.4401 24.13 68.1201 23.46 68.18C23.55 67.24 24.02 67 24.88 66.8601C25.57 66.75 25.65 66.4301 25.56 66.1901C25.33 66.1301 24.9 66.34 24.9 66.34C24.82 66.21 24.93 66.0801 24.93 66.0801C24.89 66.0301 24.87 65.8601 24.87 65.8601C25.35 65.8601 25.44 65.75 25.44 65.75C25.53 65.25 25.02 65.2001 24.63 65.4701C24.45 65.3101 24.48 65.1 24.48 65.1C24.43 65.07 24.39 64.99 24.39 64.95C24.39 64.83 24.96 64.5101 25.11 64.4701C25.15 64.3001 25.35 64.07 25.96 64.13C26.03 63.97 25.91 63.38 25.84 63.23C25.82 63.18 25.85 63.16 25.9 63.19C26.11 63.32 26.32 63.8201 26.47 63.8301C26.47 63.8301 27.15 63.4701 27.18 63.4901C27.21 63.5101 27.31 64.27 27.31 64.27C27.4 64.38 27.93 64.2701 28.16 64.3701C28.22 64.4001 28.22 64.44 28.16 64.45C27.99 64.48 27.44 64.7201 27.35 64.8701C27.66 65.3401 27.52 66.0301 27.52 66.2301V66.2201Z" fill="white"/>
<path d="M61.43 64.4798C62 64.3098 62.3 64.0298 62.34 63.5598L63.02 55.6398L62.12 55.3798V54.9298C62.82 54.8398 63.67 54.8198 64.23 54.8198H64.79L67.22 62.3398H67.24L69.6 54.8198H70.27C70.83 54.8198 71.53 54.8398 72.15 54.9298V55.3798L71.19 55.6098L71.87 64.1398L72.77 64.3098V64.6498C72.4 64.8198 71.87 64.9098 71.27 64.9098C70.56 64.9098 70.11 64.8798 69.56 64.7498V64.4598C70.21 64.2998 70.51 63.9198 70.48 63.2798L70.09 56.2398H70.06L67.3 64.8398L66.7 64.9198L63.91 56.2498L63.89 56.2698L63.41 64.0398L64.42 64.2998V64.6398C63.75 64.8398 63.38 64.8998 62.64 64.8998C62.28 64.8998 61.83 64.8398 61.45 64.7398V64.4598L61.43 64.4798Z" fill="black"/>
<path d="M73.94 64.4999C74.36 64.3499 74.76 64.0399 74.76 63.6599V58.4199L73.77 57.9999V57.6699C74.47 57.4699 75.18 57.3799 75.61 57.3799H76.11L76.03 58.2199V64.1099L76.9 64.3399V64.6299C76.37 64.8199 75.89 64.8899 75.1 64.8899C74.74 64.8899 74.29 64.8599 73.94 64.7499V64.4899V64.4999ZM74.59 55.0699C74.59 54.5899 74.93 54.1599 75.47 54.1599C75.9 54.1599 76.28 54.4899 76.28 54.9999C76.28 55.5399 75.91 55.9599 75.41 55.9599C74.95 55.9599 74.59 55.5899 74.59 55.0799V55.0699Z" fill="black"/>
<path d="M78.17 64.4999C78.57 64.3499 78.99 64.0399 78.99 63.6599V58.4199L77.98 57.9999V57.6599C78.69 57.4599 79.39 57.3799 79.84 57.3799H80.21V58.2199C80.74 57.6899 81.6 57.3499 82.5 57.3499C83.79 57.3499 84.67 58.1699 84.67 59.7699V64.1099L85.48 64.3399V64.6299C85.06 64.7999 84.52 64.8899 83.85 64.8899C83.52 64.8899 83.15 64.8599 82.84 64.7499V64.4899C83.23 64.3199 83.4 64.0299 83.4 63.4699V60.5099C83.4 58.9899 82.76 58.4199 81.85 58.4199C81.22 58.4199 80.59 58.6399 80.25 58.8999V64.1099L81.12 64.3399V64.6299C80.59 64.8199 80.1 64.8899 79.32 64.8899C78.95 64.8899 78.51 64.8599 78.16 64.7499V64.4899L78.17 64.4999Z" fill="black"/>
<path d="M86.71 64.4999C87.13 64.3499 87.53 64.0399 87.53 63.6599V58.4199L86.54 57.9999V57.6699C87.24 57.4699 87.95 57.3799 88.39 57.3799H88.89L88.81 58.2199V64.1099L89.68 64.3399V64.6299C89.15 64.8199 88.67 64.8899 87.88 64.8899C87.52 64.8899 87.07 64.8599 86.72 64.7499V64.4899L86.71 64.4999ZM87.36 55.0699C87.36 54.5899 87.7 54.1599 88.24 54.1599C88.67 54.1599 89.05 54.4899 89.05 54.9999C89.05 55.5399 88.68 55.9599 88.18 55.9599C87.72 55.9599 87.36 55.5899 87.36 55.0799V55.0699Z" fill="black"/>
<path d="M90.84 63.08C91.54 63.73 92.2 64.06 93.03 64.06C93.9 64.06 94.35 63.64 94.35 63.1C94.35 62.56 94.04 62.22 93.02 61.78L92.25 61.45C91.35 61.06 90.85 60.41 90.85 59.53C90.85 58.31 91.93 57.25 93.55 57.25C94.79 57.25 95.29 57.62 95.29 58.21C95.29 58.44 95.26 58.64 95.21 58.86C94.71 58.52 94.03 58.27 93.44 58.27C92.45 58.27 91.98 58.7 91.98 59.23C91.98 59.79 92.26 60.1 93.19 60.45L94.03 60.78C95.15 61.21 95.57 61.79 95.57 62.7C95.57 63.89 94.42 64.98 92.69 64.98C91.33 64.98 90.72 64.55 90.72 63.71C90.72 63.49 90.77 63.24 90.86 63.07L90.84 63.08Z" fill="black"/>
<path d="M97.36 60.53L97.41 58.47H96.56V57.96L98.23 56.3L98.74 56.24L98.68 57.64H100.73L100.62 58.48H98.64L98.61 60.43C98.59 61.08 98.59 61.67 98.59 62.24C98.59 63.5 98.96 63.93 99.54 63.93C99.99 63.93 100.38 63.77 100.69 63.53L100.85 63.59C100.79 64.5 100.25 64.97 99.18 64.97C97.94 64.97 97.34 64.32 97.34 62.81C97.34 62.07 97.37 61.24 97.39 60.53H97.36Z" fill="black"/>
<path d="M104.61 57.2698C106.28 57.2698 107.29 58.3898 107.29 60.1698C107.29 60.4598 107.29 60.7698 107.28 61.1598H102.71C102.71 62.8998 103.72 63.8998 105 63.8998C105.76 63.8998 106.6 63.6398 107.19 63.2298C107.22 63.3098 107.25 63.4798 107.25 63.6298C107.25 64.3298 106.23 64.9798 104.58 64.9798C102.81 64.9798 101.37 63.5998 101.37 61.4298C101.37 58.7298 103 57.2598 104.61 57.2598V57.2698ZM106.05 60.3598C106.05 58.8398 105.4 58.1098 104.48 58.1098C103.63 58.1098 102.73 59.1298 102.73 60.3598H106.05Z" fill="black"/>
<path d="M108.55 64.4998C108.95 64.3498 109.37 64.0398 109.37 63.6598V58.4198L108.36 57.9998V57.6598C109.07 57.4598 109.77 57.3798 110.22 57.3798H110.59V58.4598H110.6L111.03 57.9798C111.45 57.5298 111.87 57.2998 112.39 57.2998C112.91 57.2998 113.2 57.5298 113.2 57.9698C113.2 58.2598 113.11 58.6098 112.95 58.8998C112.66 58.6698 112.31 58.5398 111.99 58.5398C111.51 58.5398 111.06 58.7598 110.63 59.1798V64.1098L111.7 64.3398V64.6298C111.17 64.8198 110.66 64.8898 109.78 64.8898C109.33 64.8898 108.9 64.8598 108.54 64.7498V64.4898L108.55 64.4998Z" fill="black"/>
<path d="M113.77 64.4999C114.19 64.3499 114.59 64.0399 114.59 63.6599V58.4199L113.6 57.9999V57.6699C114.3 57.4699 115.01 57.3799 115.45 57.3799H115.95L115.87 58.2199V64.1099L116.74 64.3399V64.6299C116.21 64.8199 115.73 64.8899 114.94 64.8899C114.58 64.8899 114.13 64.8599 113.78 64.7499V64.4899L113.77 64.4999ZM114.42 55.0699C114.42 54.5899 114.76 54.1599 115.3 54.1599C115.73 54.1599 116.11 54.4899 116.11 54.9999C116.11 55.5399 115.74 55.9599 115.24 55.9599C114.78 55.9599 114.42 55.5899 114.42 55.0799V55.0699Z" fill="black"/>
<path d="M121.1 57.2698C122.77 57.2698 123.78 58.3898 123.78 60.1698C123.78 60.4598 123.78 60.7698 123.76 61.1598H119.19C119.19 62.8998 120.2 63.8998 121.48 63.8998C122.24 63.8998 123.08 63.6398 123.67 63.2298C123.7 63.3098 123.73 63.4798 123.73 63.6298C123.73 64.3298 122.71 64.9798 121.06 64.9798C119.29 64.9798 117.85 63.5998 117.85 61.4298C117.85 58.7298 119.48 57.2598 121.09 57.2598L121.1 57.2698ZM122.54 60.3598C122.54 58.8398 121.89 58.1098 120.97 58.1098C120.12 58.1098 119.22 59.1298 119.22 60.3598H122.54Z" fill="black"/>
<path d="M127.69 58.1999L127.06 57.7499V57.3799H130.02V57.7499L129.14 58.1199L130.81 63.0299H130.83L132.55 58.1599L131.67 57.7399V57.3699H134.06V57.7399L133.63 58.0999L130.87 64.9399L130.34 64.9699L127.7 58.1899L127.69 58.1999Z" fill="black"/>
<path d="M138.34 60.7398V60.3198C138.34 58.6498 137.94 58.2898 136.96 58.2898C136.11 58.2898 135.29 58.6498 134.63 59.2998C134.6 59.1498 134.58 59.0098 134.58 58.8298C134.58 57.8398 135.31 57.2598 137.12 57.2598C138.69 57.2598 139.62 58.0498 139.62 59.3398C139.62 59.6798 139.57 60.4598 139.56 60.9098L139.51 63.4198C139.62 63.6998 139.85 63.9898 140.13 64.2098C139.9 64.4898 139.48 64.7998 139.08 64.9998C138.79 64.8098 138.55 64.5698 138.37 64.2398C137.94 64.6598 137.1 64.9798 136.28 64.9798C135.12 64.9798 134.31 64.2498 134.31 63.2598C134.31 61.8998 135.8 60.7298 138.34 60.7298V60.7398ZM136.85 64.0598C137.33 64.0598 137.95 63.8698 138.34 63.6398V61.4698C136.59 61.4698 135.64 62.1998 135.64 63.0398C135.64 63.6598 136.06 64.0598 136.85 64.0598Z" fill="black"/>
<path d="M141.48 64.4999C141.88 64.3499 142.3 64.0399 142.3 63.6599V58.4199L141.29 57.9999V57.6599C142 57.4599 142.7 57.3799 143.15 57.3799H143.52V58.2199C144.05 57.6899 144.91 57.3499 145.81 57.3499C147.1 57.3499 147.98 58.1699 147.98 59.7699V64.1099L148.79 64.3399V64.6299C148.37 64.7999 147.83 64.8899 147.16 64.8899C146.83 64.8899 146.46 64.8599 146.15 64.7499V64.4899C146.54 64.3199 146.71 64.0299 146.71 63.4699V60.5099C146.71 58.9899 146.07 58.4199 145.16 58.4199C144.53 58.4199 143.9 58.6399 143.56 58.8999V64.1099L144.43 64.3399V64.6299C143.9 64.8199 143.41 64.8899 142.63 64.8899C142.26 64.8899 141.82 64.8599 141.47 64.7499V64.4899L141.48 64.4999Z" fill="black"/>
<path d="M153.09 64.4598C153.62 64.3398 153.99 64.0098 153.99 63.3098V55.6798L153.01 55.3498V55.0098C153.99 54.8198 154.64 54.7898 156.11 54.7898C158.36 54.7898 159.44 55.6098 159.44 57.0798C159.44 58.2598 158.39 59.3398 157.18 59.5798V59.5998C158.81 59.5998 159.88 60.4998 159.88 61.9398C159.88 63.6298 158.3 64.9498 155.9 64.9498C154.8 64.9498 153.93 64.9198 153.09 64.7498V64.4598ZM158.04 57.2398C158.04 56.2498 157.36 55.6398 156.01 55.6398C155.79 55.6398 155.58 55.6598 155.31 55.6898V59.3798C157 59.3798 158.04 58.5898 158.04 57.2398ZM156.13 64.1098C157.38 64.1098 158.41 63.2698 158.41 62.0898C158.41 60.7898 157.51 60.1198 155.81 60.1198H155.31V64.0398C155.62 64.0898 155.84 64.0998 156.13 64.0998V64.1098Z" fill="black"/>
<path d="M161.37 64.4999C161.79 64.3499 162.19 64.0399 162.19 63.6599V58.4199L161.2 57.9999V57.6699C161.9 57.4699 162.61 57.3799 163.05 57.3799H163.55L163.47 58.2199V64.1099L164.34 64.3399V64.6299C163.81 64.8199 163.33 64.8899 162.54 64.8899C162.18 64.8899 161.73 64.8599 161.38 64.7499V64.4899L161.37 64.4999ZM162.02 55.0699C162.02 54.5899 162.36 54.1599 162.9 54.1599C163.33 54.1599 163.71 54.4899 163.71 54.9999C163.71 55.5399 163.34 55.9599 162.84 55.9599C162.38 55.9599 162.02 55.5899 162.02 55.0799V55.0699Z" fill="black"/>
<path d="M165.6 64.4999C166 64.3499 166.42 64.0399 166.42 63.6599V58.4199L165.41 57.9999V57.6599C166.12 57.4599 166.82 57.3799 167.27 57.3799H167.64V58.2199C168.17 57.6899 169.03 57.3499 169.93 57.3499C171.22 57.3499 172.1 58.1699 172.1 59.7699V64.1099L172.91 64.3399V64.6299C172.49 64.7999 171.95 64.8899 171.28 64.8899C170.95 64.8899 170.58 64.8599 170.27 64.7499V64.4899C170.66 64.3199 170.83 64.0299 170.83 63.4699V60.5099C170.83 58.9899 170.19 58.4199 169.28 58.4199C168.65 58.4199 168.02 58.6399 167.68 58.8999V64.1099L168.55 64.3399V64.6299C168.02 64.8199 167.53 64.8899 166.75 64.8899C166.38 64.8899 165.94 64.8599 165.59 64.7499V64.4899L165.6 64.4999Z" fill="black"/>
<path d="M174.14 64.4999C174.54 64.3499 174.96 64.0399 174.96 63.6599V58.4199L173.95 57.9999V57.6599C174.66 57.4599 175.36 57.3799 175.81 57.3799H176.18V58.2199C176.71 57.6899 177.57 57.3499 178.47 57.3499C179.76 57.3499 180.64 58.1699 180.64 59.7699V64.1099L181.45 64.3399V64.6299C181.03 64.7999 180.49 64.8899 179.82 64.8899C179.49 64.8899 179.12 64.8599 178.81 64.7499V64.4899C179.2 64.3199 179.37 64.0299 179.37 63.4699V60.5099C179.37 58.9899 178.73 58.4199 177.82 58.4199C177.18 58.4199 176.57 58.6399 176.22 58.8999V64.1099L177.09 64.3399V64.6299C176.56 64.8199 176.07 64.8899 175.29 64.8899C174.92 64.8899 174.48 64.8599 174.13 64.7499V64.4899L174.14 64.4999Z" fill="black"/>
<path d="M185.78 57.2698C187.45 57.2698 188.46 58.3898 188.46 60.1698C188.46 60.4598 188.46 60.7698 188.45 61.1598H183.88C183.88 62.8998 184.89 63.8998 186.17 63.8998C186.93 63.8998 187.77 63.6398 188.36 63.2298C188.39 63.3098 188.42 63.4798 188.42 63.6298C188.42 64.3298 187.4 64.9798 185.75 64.9798C183.98 64.9798 182.54 63.5998 182.54 61.4298C182.54 58.7298 184.17 57.2598 185.78 57.2598V57.2698ZM187.22 60.3598C187.22 58.8398 186.57 58.1098 185.65 58.1098C184.8 58.1098 183.9 59.1298 183.9 60.3598H187.22Z" fill="black"/>
<path d="M189.72 64.4999C190.12 64.3499 190.54 64.0399 190.54 63.6599V58.4199L189.53 57.9999V57.6599C190.24 57.4599 190.94 57.3799 191.39 57.3799H191.76V58.2199C192.29 57.6899 193.15 57.3499 194.05 57.3499C195.34 57.3499 196.22 58.1699 196.22 59.7699V64.1099L197.03 64.3399V64.6299C196.61 64.7999 196.07 64.8899 195.4 64.8899C195.07 64.8899 194.7 64.8599 194.39 64.7499V64.4899C194.78 64.3199 194.95 64.0299 194.95 63.4699V60.5099C194.95 58.9899 194.31 58.4199 193.4 58.4199C192.77 58.4199 192.14 58.6399 191.8 58.8999V64.1099L192.67 64.3399V64.6299C192.14 64.8199 191.65 64.8899 190.87 64.8899C190.5 64.8899 190.06 64.8599 189.71 64.7499V64.4899L189.72 64.4999Z" fill="black"/>
<path d="M198.26 64.4999C198.66 64.3499 199.08 64.0399 199.08 63.6599V54.6699L198.07 54.2499V53.9099C198.77 53.7099 199.5 53.6299 199.93 53.6299H200.43L200.35 54.4999V64.1099L201.22 64.3399V64.6299C200.69 64.8199 200.2 64.8899 199.42 64.8899C199.05 64.8899 198.61 64.8599 198.26 64.7499V64.4899V64.4999Z" fill="black"/>
<path d="M206.24 60.7398V60.3198C206.24 58.6498 205.84 58.2898 204.86 58.2898C204.01 58.2898 203.19 58.6498 202.53 59.2998C202.5 59.1498 202.48 59.0098 202.48 58.8298C202.48 57.8398 203.21 57.2598 205.02 57.2598C206.59 57.2598 207.52 58.0498 207.52 59.3398C207.52 59.6798 207.47 60.4598 207.46 60.9098L207.41 63.4198C207.52 63.6998 207.75 63.9898 208.03 64.2098C207.8 64.4898 207.38 64.7998 206.98 64.9998C206.69 64.8098 206.45 64.5698 206.27 64.2398C205.84 64.6598 205 64.9798 204.18 64.9798C203.02 64.9798 202.21 64.2498 202.21 63.2598C202.21 61.8998 203.7 60.7298 206.24 60.7298V60.7398ZM204.75 64.0598C205.23 64.0598 205.85 63.8698 206.24 63.6398V61.4698C204.49 61.4698 203.54 62.1998 203.54 63.0398C203.54 63.6598 203.96 64.0598 204.75 64.0598Z" fill="black"/>
<path d="M209.39 64.4999C209.79 64.3499 210.21 64.0399 210.21 63.6599V58.4199L209.2 57.9999V57.6599C209.91 57.4599 210.61 57.3799 211.06 57.3799H211.43V58.2199C211.96 57.6899 212.82 57.3499 213.72 57.3499C215.01 57.3499 215.89 58.1699 215.89 59.7699V64.1099L216.7 64.3399V64.6299C216.28 64.7999 215.74 64.8899 215.07 64.8899C214.74 64.8899 214.37 64.8599 214.06 64.7499V64.4899C214.45 64.3199 214.62 64.0299 214.62 63.4699V60.5099C214.62 58.9899 213.98 58.4199 213.07 58.4199C212.44 58.4199 211.81 58.6399 211.47 58.8999V64.1099L212.34 64.3399V64.6299C211.81 64.8199 211.32 64.8899 210.54 64.8899C210.17 64.8899 209.73 64.8599 209.38 64.7499V64.4899L209.39 64.4999Z" fill="black"/>
<path d="M221.49 57.2899C221.86 57.2899 222.31 57.3399 222.56 57.3999V54.6699L221.51 54.2499V53.9099C222.22 53.7099 222.98 53.6299 223.43 53.6299H223.93L223.84 54.4999V63.3799C223.95 63.6899 224.13 64.0199 224.43 64.2799C224.12 64.5599 223.78 64.7799 223.35 65.0099C223.04 64.7599 222.76 64.4099 222.61 64.0799C222.11 64.5899 221.26 64.9599 220.63 64.9599C219.06 64.9599 217.81 63.6599 217.81 61.5999C217.81 58.8099 219.5 57.2899 221.52 57.2899H221.49ZM222.58 63.4599V58.3299C222.32 58.2399 221.87 58.1599 221.45 58.1599C220.13 58.1599 219.14 59.1999 219.14 61.3499C219.14 63.0399 220.02 63.9499 221 63.9499C221.59 63.9499 222.22 63.7499 222.58 63.4499V63.4599Z" fill="black"/>
<path d="M225.75 63.08C226.45 63.73 227.11 64.06 227.94 64.06C228.81 64.06 229.26 63.64 229.26 63.1C229.26 62.56 228.95 62.22 227.93 61.78L227.16 61.45C226.26 61.06 225.76 60.41 225.76 59.53C225.76 58.31 226.84 57.25 228.46 57.25C229.7 57.25 230.2 57.62 230.2 58.21C230.2 58.44 230.17 58.64 230.12 58.86C229.62 58.52 228.94 58.27 228.35 58.27C227.36 58.27 226.89 58.7 226.89 59.23C226.89 59.79 227.17 60.1 228.1 60.45L228.94 60.78C230.06 61.21 230.48 61.79 230.48 62.7C230.48 63.89 229.33 64.98 227.6 64.98C226.24 64.98 225.63 64.55 225.63 63.71C225.63 63.49 225.68 63.24 225.77 63.07L225.75 63.08Z" fill="black"/>
<path d="M234.7 57.2698C236.37 57.2698 237.38 58.3898 237.38 60.1698C237.38 60.4598 237.38 60.7698 237.36 61.1598H232.79C232.79 62.8998 233.8 63.8998 235.08 63.8998C235.84 63.8998 236.68 63.6398 237.27 63.2298C237.3 63.3098 237.33 63.4798 237.33 63.6298C237.33 64.3298 236.31 64.9798 234.66 64.9798C232.89 64.9798 231.45 63.5998 231.45 61.4298C231.45 58.7298 233.08 57.2598 234.69 57.2598L234.7 57.2698ZM236.14 60.3598C236.14 58.8398 235.49 58.1098 234.57 58.1098C233.72 58.1098 232.82 59.1298 232.82 60.3598H236.14Z" fill="black"/>
<path d="M241.25 64.3699L246.15 55.8099H243.44C242.82 55.8099 242.4 56.1499 242.17 56.8599L242.06 57.1999H241.56L241.75 54.8899H247.78L247.92 55.2299L243.05 63.8299H245.79C246.78 63.8299 247.11 63.5399 247.4 62.7299L247.49 62.4399H247.99L247.74 64.7499H241.38L241.24 64.3599L241.25 64.3699Z" fill="black"/>
<path d="M252.69 60.7398V60.3198C252.69 58.6498 252.29 58.2898 251.31 58.2898C250.46 58.2898 249.64 58.6498 248.98 59.2998C248.95 59.1498 248.93 59.0098 248.93 58.8298C248.93 57.8398 249.66 57.2598 251.47 57.2598C253.04 57.2598 253.97 58.0498 253.97 59.3398C253.97 59.6798 253.92 60.4598 253.91 60.9098L253.86 63.4198C253.97 63.6998 254.2 63.9898 254.48 64.2098C254.25 64.4898 253.83 64.7998 253.43 64.9998C253.14 64.8098 252.9 64.5698 252.72 64.2398C252.29 64.6598 251.45 64.9798 250.63 64.9798C249.47 64.9798 248.66 64.2498 248.66 63.2598C248.66 61.8998 250.15 60.7298 252.69 60.7298V60.7398ZM251.21 64.0598C251.69 64.0598 252.31 63.8698 252.7 63.6398V61.4698C250.95 61.4698 250 62.1998 250 63.0398C250 63.6598 250.42 64.0598 251.21 64.0598Z" fill="black"/>
<path d="M255.82 64.4999C256.24 64.3499 256.66 64.0399 256.66 63.6599V54.6699L255.64 54.2499V53.9099C256.35 53.7099 257.07 53.6299 257.5 53.6299H258.03L257.94 54.4999V60.6999L258.79 59.9599C259.63 59.2499 260.39 58.1799 260.39 57.4799C260.67 57.3899 260.9 57.3599 261.21 57.3599C261.44 57.3599 261.63 57.4099 261.83 57.4999C261.8 58.1699 261.13 59.2199 259.72 60.2299L259.18 60.6199L261.57 63.5199C262 64.0499 262.39 64.2599 262.72 64.2599V64.5899C262.38 64.8199 262.02 64.9199 261.57 64.9199C261.12 64.9199 260.76 64.7299 260.47 64.3299L257.94 60.9999V64.1299L258.75 64.3799V64.6699C258.18 64.8599 257.73 64.9199 257 64.9199C256.64 64.9199 256.19 64.8899 255.84 64.7799V64.5199L255.82 64.4999Z" fill="black"/>
<path d="M266.26 57.2698C267.93 57.2698 268.94 58.3898 268.94 60.1698C268.94 60.4598 268.94 60.7698 268.93 61.1598H264.36C264.36 62.8998 265.37 63.8998 266.65 63.8998C267.41 63.8998 268.25 63.6398 268.84 63.2298C268.87 63.3098 268.9 63.4798 268.9 63.6298C268.9 64.3298 267.88 64.9798 266.23 64.9798C264.46 64.9798 263.02 63.5998 263.02 61.4298C263.02 58.7298 264.65 57.2598 266.26 57.2598V57.2698ZM267.7 60.3598C267.7 58.8398 267.05 58.1098 266.13 58.1098C265.28 58.1098 264.38 59.1298 264.38 60.3598H267.7Z" fill="black"/>
<path d="M270.19 64.4999C270.59 64.3499 271.01 64.0399 271.01 63.6599V58.4199L270 57.9999V57.6599C270.71 57.4599 271.41 57.3799 271.86 57.3799H272.23V58.2199C272.76 57.6899 273.62 57.3499 274.52 57.3499C275.81 57.3499 276.69 58.1699 276.69 59.7699V64.1099L277.5 64.3399V64.6299C277.08 64.7999 276.54 64.8899 275.87 64.8899C275.54 64.8899 275.17 64.8599 274.86 64.7499V64.4899C275.25 64.3199 275.42 64.0299 275.42 63.4699V60.5099C275.42 58.9899 274.78 58.4199 273.87 58.4199C273.24 58.4199 272.61 58.6399 272.27 58.8999V64.1099L273.14 64.3399V64.6299C272.61 64.8199 272.12 64.8899 271.34 64.8899C270.97 64.8899 270.53 64.8599 270.18 64.7499V64.4899L270.19 64.4999Z" fill="black"/>
<path d="M284.89 57.2698C286.56 57.2698 287.57 58.3898 287.57 60.1698C287.57 60.4598 287.57 60.7698 287.56 61.1598H282.99C282.99 62.8998 284 63.8998 285.28 63.8998C286.04 63.8998 286.88 63.6398 287.47 63.2298C287.5 63.3098 287.53 63.4798 287.53 63.6298C287.53 64.3298 286.51 64.9798 284.86 64.9798C283.09 64.9798 281.65 63.5998 281.65 61.4298C281.65 58.7298 283.28 57.2598 284.89 57.2598V57.2698ZM286.33 60.3598C286.33 58.8398 285.68 58.1098 284.76 58.1098C283.91 58.1098 283.01 59.1298 283.01 60.3598H286.33Z" fill="black"/>
<path d="M288.82 64.4999C289.22 64.3499 289.64 64.0399 289.64 63.6599V58.4199L288.63 57.9999V57.6599C289.34 57.4599 290.04 57.3799 290.49 57.3799H290.86V58.2199C291.39 57.6899 292.25 57.3499 293.15 57.3499C294.44 57.3499 295.32 58.1699 295.32 59.7699V64.1099L296.13 64.3399V64.6299C295.71 64.7999 295.17 64.8899 294.5 64.8899C294.17 64.8899 293.8 64.8599 293.49 64.7499V64.4899C293.88 64.3199 294.05 64.0299 294.05 63.4699V60.5099C294.05 58.9899 293.41 58.4199 292.5 58.4199C291.87 58.4199 291.24 58.6399 290.9 58.8999V64.1099L291.77 64.3399V64.6299C291.24 64.8199 290.75 64.8899 289.97 64.8899C289.6 64.8899 289.16 64.8599 288.81 64.7499V64.4899L288.82 64.4999Z" fill="black"/>
<path d="M61.88 82.0599C62.55 81.8599 62.78 81.5299 62.78 80.8699V73.2399L61.8 72.9899V72.6499C62.37 72.4799 63.01 72.3999 63.57 72.3999C64.13 72.3999 64.58 72.4499 65.03 72.5599V72.8499C64.38 73.0399 64.13 73.3099 64.13 73.9999V81.6599L65.11 81.9099V82.2499C64.52 82.4199 64.06 82.5099 63.27 82.5099C62.7 82.5099 62.26 82.4599 61.89 82.3499V82.0599H61.88ZM64.17 77.3499L67.84 73.1799V73.1599L67 72.9699V72.6399C67.68 72.4399 68.09 72.3899 68.69 72.3899C69.08 72.3899 69.42 72.4199 69.76 72.5299V72.8199C69.33 73.0199 69 73.2399 68.63 73.6399L65.53 77.0999L68.29 80.5999C68.82 81.2699 69.22 81.5599 70.01 81.9199V82.2299C69.68 82.4499 69.39 82.5699 68.91 82.5699C68.17 82.5699 67.72 82.3199 66.97 81.2799L64.16 77.3899V77.3299L64.17 77.3499Z" fill="black"/>
<path d="M73.73 74.8599C75.64 74.8599 77.11 76.2899 77.11 78.4399C77.11 80.9999 75.33 82.6099 73.48 82.6099C71.63 82.6099 70.08 81.2899 70.08 79.0299C70.08 76.4899 71.82 74.8599 73.72 74.8599H73.73ZM73.58 81.7099C74.62 81.7099 75.7 80.6999 75.7 78.5799C75.7 76.7699 74.72 75.7599 73.62 75.7599C72.52 75.7599 71.5 76.8299 71.5 78.8799C71.5 80.7599 72.48 81.7199 73.58 81.7199V81.7099Z" fill="black"/>
<path d="M78.09 82.1C78.49 81.94 78.91 81.64 78.91 81.26V76.02L77.9 75.6V75.26C78.61 75.06 79.31 74.98 79.76 74.98H80.13V75.82C80.66 75.29 81.52 74.95 82.42 74.95C83.71 74.95 84.59 75.77 84.59 77.37V81.71L85.4 81.94V82.23C84.98 82.4 84.44 82.49 83.77 82.49C83.44 82.49 83.07 82.46 82.76 82.35V82.09C83.15 81.92 83.32 81.63 83.32 81.07V78.11C83.32 76.59 82.68 76.02 81.77 76.02C81.13 76.02 80.52 76.24 80.17 76.5V81.71L81.04 81.94V82.23C80.51 82.42 80.02 82.49 79.24 82.49C78.87 82.49 78.43 82.46 78.08 82.35V82.09L78.09 82.1Z" fill="black"/>
<path d="M86.63 82.1C87.05 81.94 87.45 81.64 87.45 81.26V76.02L86.46 75.6V75.27C87.16 75.07 87.87 74.98 88.3 74.98H88.8L88.72 75.82V81.71L89.59 81.94V82.23C89.06 82.42 88.58 82.49 87.79 82.49C87.43 82.49 86.98 82.46 86.63 82.35V82.09V82.1ZM87.28 72.67C87.28 72.19 87.62 71.75 88.16 71.75C88.59 71.75 88.97 72.08 88.97 72.59C88.97 73.13 88.6 73.55 88.1 73.55C87.64 73.55 87.28 73.18 87.28 72.67Z" fill="black"/>
<path d="M90.86 82.1C91.26 81.94 91.68 81.64 91.68 81.26V76.02L90.67 75.6V75.26C91.38 75.06 92.08 74.98 92.53 74.98H92.9V75.82C93.43 75.29 94.29 74.95 95.19 74.95C96.48 74.95 97.36 75.77 97.36 77.37V81.71L98.17 81.94V82.23C97.75 82.4 97.21 82.49 96.54 82.49C96.21 82.49 95.84 82.46 95.53 82.35V82.09C95.92 81.92 96.09 81.63 96.09 81.07V78.11C96.09 76.59 95.45 76.02 94.54 76.02C93.9 76.02 93.29 76.24 92.94 76.5V81.71L93.81 81.94V82.23C93.28 82.42 92.79 82.49 92.01 82.49C91.64 82.49 91.2 82.46 90.85 82.35V82.09L90.86 82.1Z" fill="black"/>
<path d="M99.38 82.1C99.8 81.94 100.22 81.64 100.22 81.26V72.27L99.2 71.85V71.51C99.91 71.31 100.63 71.23 101.06 71.23H101.59L101.5 72.1V78.3L102.35 77.56C103.19 76.85 103.95 75.78 103.95 75.08C104.23 74.99 104.46 74.96 104.77 74.96C105 74.96 105.19 75.01 105.39 75.1C105.36 75.77 104.69 76.82 103.28 77.83L102.74 78.22L105.13 81.12C105.56 81.65 105.95 81.86 106.28 81.86V82.19C105.94 82.42 105.58 82.52 105.13 82.52C104.68 82.52 104.32 82.33 104.03 81.93L101.5 78.6V81.73L102.31 81.98V82.27C101.74 82.46 101.29 82.52 100.56 82.52C100.2 82.52 99.75 82.49 99.4 82.38V82.12L99.38 82.1Z" fill="black"/>
<path d="M106.72 82.0999C107.12 81.9399 107.54 81.6399 107.54 81.2599V76.0199L106.53 75.5999V75.2599C107.24 75.0599 107.94 74.9799 108.39 74.9799H108.76V76.0699H108.78L109.21 75.5899C109.63 75.1399 110.05 74.9099 110.57 74.9099C111.09 74.9099 111.38 75.1399 111.38 75.5799C111.38 75.8699 111.29 76.2199 111.13 76.5099C110.84 76.2799 110.5 76.1499 110.17 76.1499C109.69 76.1499 109.24 76.3699 108.81 76.7899V81.7199L109.88 81.9499V82.2399C109.35 82.4299 108.84 82.4999 107.96 82.4999C107.51 82.4999 107.08 82.4699 106.72 82.3599V82.0999Z" fill="black"/>
<path d="M112.33 82.1C112.75 81.94 113.15 81.64 113.15 81.26V76.02L112.16 75.6V75.27C112.86 75.07 113.57 74.98 114.01 74.98H114.51L114.43 75.82V81.71L115.3 81.94V82.23C114.77 82.42 114.29 82.49 113.5 82.49C113.14 82.49 112.69 82.46 112.34 82.35V82.09L112.33 82.1ZM112.98 72.67C112.98 72.19 113.32 71.75 113.86 71.75C114.29 71.75 114.67 72.08 114.67 72.59C114.67 73.13 114.3 73.55 113.8 73.55C113.34 73.55 112.98 73.18 112.98 72.67Z" fill="black"/>
<path d="M117.32 76.02L116.33 75.6V75.27C117.04 75.07 117.74 74.98 118.19 74.98H118.69L118.6 75.85V82.81C118.6 85.35 117.84 86.14 116.85 86.14C116.51 86.14 116.17 86.02 115.98 85.77V85.52C116.66 85.52 117.33 84.74 117.33 83.16V76.01L117.32 76.02ZM117.15 72.67C117.15 72.19 117.49 71.75 118.03 71.75C118.46 71.75 118.84 72.08 118.84 72.59C118.84 73.13 118.47 73.55 117.97 73.55C117.5 73.55 117.15 73.18 117.15 72.67Z" fill="black"/>
<path d="M120.25 82.1C120.67 81.94 121.09 81.64 121.09 81.26V72.27L120.07 71.85V71.51C120.78 71.31 121.5 71.23 121.93 71.23H122.46L122.37 72.1V78.3L123.22 77.56C124.06 76.85 124.82 75.78 124.82 75.08C125.1 74.99 125.33 74.96 125.64 74.96C125.87 74.96 126.06 75.01 126.26 75.1C126.23 75.77 125.56 76.82 124.15 77.83L123.61 78.22L126 81.12C126.43 81.65 126.82 81.86 127.15 81.86V82.19C126.81 82.42 126.45 82.52 126 82.52C125.55 82.52 125.19 82.33 124.9 81.93L122.37 78.6V81.73L123.18 81.98V82.27C122.61 82.46 122.16 82.52 121.43 82.52C121.07 82.52 120.62 82.49 120.27 82.38V82.12L120.25 82.1Z" fill="black"/>
<path d="M127.49 80.6799C128.19 81.3299 128.85 81.6599 129.68 81.6599C130.55 81.6599 131 81.2399 131 80.6999C131 80.1599 130.69 79.8199 129.67 79.3799L128.9 79.0499C128 78.6599 127.5 78.0099 127.5 77.1299C127.5 75.9099 128.58 74.8499 130.2 74.8499C131.44 74.8499 131.94 75.2199 131.94 75.8099C131.94 76.0399 131.91 76.2399 131.86 76.4599C131.36 76.1199 130.68 75.8699 130.09 75.8699C129.1 75.8699 128.63 76.2999 128.63 76.8299C128.63 77.3899 128.91 77.6999 129.84 78.0499L130.68 78.3799C131.8 78.8099 132.22 79.3899 132.22 80.2999C132.22 81.4899 131.07 82.5799 129.34 82.5799C127.98 82.5799 127.37 82.1499 127.37 81.3099C127.37 81.0899 127.42 80.8499 127.51 80.6699L127.49 80.6799Z" fill="black"/>
<path d="M133.33 82.0999C133.73 81.9399 134.15 81.6399 134.15 81.2599V76.0199L133.14 75.5999V75.2599C133.85 75.0599 134.55 74.9799 135 74.9799H135.37V76.0699H135.38L135.81 75.5899C136.23 75.1399 136.65 74.9099 137.17 74.9099C137.69 74.9099 137.98 75.1399 137.98 75.5799C137.98 75.8699 137.89 76.2199 137.73 76.5099C137.44 76.2799 137.09 76.1499 136.77 76.1499C136.29 76.1499 135.84 76.3699 135.41 76.7899V81.7199L136.48 81.9499V82.2399C135.95 82.4299 135.44 82.4999 134.56 82.4999C134.11 82.4999 133.68 82.4699 133.32 82.3599V82.0999H133.33Z" fill="black"/>
<path d="M141.65 74.8699C143.32 74.8699 144.33 75.9899 144.33 77.7699C144.33 78.0599 144.33 78.3699 144.31 78.7599H139.74C139.74 80.4999 140.75 81.4999 142.03 81.4999C142.79 81.4999 143.63 81.2399 144.22 80.8299C144.25 80.9099 144.28 81.0799 144.28 81.2299C144.28 81.9299 143.26 82.5799 141.61 82.5799C139.84 82.5799 138.4 81.1999 138.4 79.0299C138.4 76.3299 140.03 74.8599 141.64 74.8599L141.65 74.8699ZM143.1 77.9599C143.1 76.4399 142.45 75.7099 141.53 75.7099C140.68 75.7099 139.78 76.7299 139.78 77.9599H143.1Z" fill="black"/>
<path d="M145.59 82.1C145.99 81.94 146.41 81.64 146.41 81.26V72.27L145.4 71.85V71.51C146.1 71.31 146.83 71.23 147.26 71.23H147.76L147.68 72.1V81.71L148.55 81.94V82.23C148.02 82.42 147.53 82.49 146.75 82.49C146.38 82.49 145.94 82.46 145.59 82.35V82.09V82.1Z" fill="black"/>
<path d="M153.57 78.3399V77.9199C153.57 76.2499 153.17 75.8899 152.19 75.8899C151.34 75.8899 150.52 76.2499 149.86 76.8999C149.83 76.7399 149.81 76.6099 149.81 76.4399C149.81 75.4499 150.54 74.8699 152.35 74.8699C153.92 74.8699 154.85 75.6599 154.85 76.9499C154.85 77.2899 154.8 78.0699 154.79 78.5199L154.74 81.0299C154.85 81.3099 155.08 81.5999 155.36 81.8199C155.13 82.0999 154.71 82.4099 154.31 82.6099C154.02 82.4199 153.78 82.1799 153.6 81.8499C153.17 82.2699 152.33 82.5899 151.51 82.5899C150.35 82.5899 149.54 81.8599 149.54 80.8699C149.54 79.5099 151.03 78.3399 153.57 78.3399ZM152.08 81.6599C152.56 81.6599 153.18 81.4699 153.57 81.2399V79.0699C151.82 79.0699 150.87 79.7999 150.87 80.6399C150.87 81.2599 151.29 81.6599 152.08 81.6599Z" fill="black"/>
<path d="M157.39 78.1298L157.44 76.0698H156.59V75.5598L158.26 73.8998L158.77 73.8398L158.71 75.2299H160.76L160.65 76.0698H158.67L158.64 78.0198C158.62 78.6698 158.62 79.2598 158.62 79.8298C158.62 81.0898 158.99 81.5198 159.57 81.5198C160.02 81.5198 160.41 81.3598 160.72 81.1199L160.88 81.1798C160.82 82.0998 160.28 82.5598 159.21 82.5598C157.97 82.5598 157.37 81.9099 157.37 80.4099C157.37 79.6699 157.4 78.8398 157.42 78.1298H157.39Z" fill="black"/>
<path d="M161.54 82.1C161.96 81.94 162.36 81.64 162.36 81.26V76.02L161.37 75.6V75.27C162.07 75.07 162.78 74.98 163.21 74.98H163.71L163.63 75.82V81.71L164.5 81.94V82.23C163.97 82.42 163.49 82.49 162.7 82.49C162.34 82.49 161.89 82.46 161.54 82.35V82.09V82.1ZM162.19 72.67C162.19 72.19 162.53 71.75 163.07 71.75C163.5 71.75 163.88 72.08 163.88 72.59C163.88 73.13 163.51 73.55 163.01 73.55C162.55 73.55 162.19 73.18 162.19 72.67Z" fill="black"/>
<path d="M168.87 74.8699C170.54 74.8699 171.55 75.9899 171.55 77.7699C171.55 78.0599 171.55 78.3699 171.54 78.7599H166.97C166.97 80.4999 167.98 81.4999 169.26 81.4999C170.02 81.4999 170.86 81.2399 171.45 80.8299C171.48 80.9099 171.51 81.0799 171.51 81.2299C171.51 81.9299 170.49 82.5799 168.84 82.5799C167.07 82.5799 165.63 81.1999 165.63 79.0299C165.63 76.3299 167.26 74.8599 168.87 74.8599V74.8699ZM170.31 77.9599C170.31 76.4399 169.66 75.7099 168.74 75.7099C167.89 75.7099 166.99 76.7299 166.99 77.9599H170.31Z" fill="black"/>
<path d="M172.71 80.6799C173.41 81.3299 174.07 81.6599 174.9 81.6599C175.77 81.6599 176.22 81.2399 176.22 80.6999C176.22 80.1599 175.91 79.8199 174.89 79.3799L174.12 79.0499C173.22 78.6599 172.72 78.0099 172.72 77.1299C172.72 75.9099 173.8 74.8499 175.42 74.8499C176.66 74.8499 177.16 75.2199 177.16 75.8099C177.16 76.0399 177.13 76.2399 177.08 76.4599C176.58 76.1199 175.9 75.8699 175.31 75.8699C174.32 75.8699 173.85 76.2999 173.85 76.8299C173.85 77.3899 174.13 77.6999 175.06 78.0499L175.9 78.3799C177.02 78.8099 177.44 79.3899 177.44 80.2999C177.44 81.4899 176.29 82.5799 174.56 82.5799C173.2 82.5799 172.59 82.1499 172.59 81.3099C172.59 81.0899 172.64 80.8499 172.73 80.6699L172.71 80.6799Z" fill="black"/>
</g>
<defs>
<clipPath id="clip0_3130_3910">
<rect width="314" height="100" fill="white"/>
</clipPath>
</defs>
</svg>
